<?xml version="1.0" standalone="no"?>
<!DOCTYPE svg PUBLIC "-//W3C//DTD SVG 20010904//EN"
 "http://www.w3.org/TR/2001/REC-SVG-20010904/DTD/svg10.dtd">
<svg version="1.0" xmlns="http://www.w3.org/2000/svg"
 width="32.000000pt" height="1392.000000pt" viewBox="0 0 32.000000 1392.000000"
 preserveAspectRatio="xMidYMid meet">

<g transform="translate(0.000000,1392.000000) scale(0.100000,-0.100000)"
fill="#000000" stroke="none">
<path d="M110 13872 c-32 -32 -40 -62 -15 -62 8 0 25 11 39 25 20 19 30 23 48
16 43 -16 32 -91 -13 -91 -14 0 -19 -7 -19 -30 0 -42 22 -39 72 10 36 37 40
44 35 77 -8 47 -33 72 -80 80 -31 5 -40 1 -67 -25z"/>
<path d="M144 13665 c-9 -23 3 -45 26 -45 25 0 37 25 20 45 -16 19 -39 19 -46
0z"/>
<path d="M90 13280 l0 -120 49 0 c53 0 101 14 113 33 15 23 8 67 -12 79 -17
11 -18 14 -4 29 23 25 14 71 -16 86 -14 7 -49 13 -77 13 l-53 0 0 -120z m106
65 c8 -20 -13 -45 -37 -45 -14 0 -19 7 -19 30 0 25 4 30 25 30 14 0 28 -7 31
-15z m2 -84 c8 -4 12 -19 10 -32 -2 -19 -10 -25 -35 -27 -32 -3 -33 -2 -33 32
0 31 3 36 23 36 12 0 28 -4 35 -9z"/>
<path d="M147 12900 c-3 -13 0 -20 9 -20 18 0 18 0 -3 -87 -13 -55 -21 -73
-34 -73 -9 0 -19 -9 -22 -20 -5 -18 0 -20 48 -20 39 0 54 4 59 16 9 22 8 24
-10 24 -10 0 -14 6 -10 18 5 18 8 29 26 100 6 23 17 42 24 42 12 0 26 20 26
36 0 2 -24 4 -54 4 -45 0 -54 -3 -59 -20z"/>
<path d="M105 12419 c-22 -18 -26 -28 -23 -55 4 -30 1 -34 -19 -34 -13 0 -23
-4 -23 -10 0 -5 19 -10 41 -10 62 0 119 -20 119 -41 0 -20 -30 -33 -57 -25
-10 2 -28 7 -41 11 -20 6 -23 4 -20 -16 2 -18 12 -26 41 -32 80 -19 146 19
135 78 -4 21 -1 25 18 25 13 0 24 5 24 10 0 6 -15 10 -32 10 -56 1 -133 25
-136 43 -4 22 39 32 78 19 28 -10 30 -9 30 12 0 41 -89 50 -135 15z"/>
<path d="M43 11904 c-3 -8 4 -25 17 -40 l23 -24 -21 -23 c-41 -44 -18 -73 30
-37 l30 22 23 -22 c25 -23 55 -21 55 3 0 7 -11 24 -24 36 l-24 22 24 24 c13
13 24 29 24 35 0 22 -32 22 -56 0 l-24 -23 -23 21 c-27 26 -45 28 -54 6z"/>
<path d="M220 11790 c0 -5 14 -10 30 -10 17 0 30 -4 30 -10 0 -5 -13 -10 -30
-10 -27 0 -30 -3 -30 -30 0 -28 2 -30 40 -30 22 0 40 5 40 10 0 6 -13 10 -30
10 -16 0 -30 5 -30 10 0 6 14 10 30 10 27 0 30 3 30 30 0 28 -2 30 -40 30 -22
0 -40 -4 -40 -10z"/>
<path d="M220 11470 c0 -5 14 -10 30 -10 17 0 30 -4 30 -10 0 -5 -13 -10 -30
-10 -27 0 -30 -3 -30 -30 0 -28 2 -30 40 -30 22 0 40 5 40 10 0 6 -13 10 -30
10 -16 0 -30 5 -30 10 0 6 14 10 30 10 27 0 30 3 30 30 0 28 -2 30 -40 30 -22
0 -40 -4 -40 -10z"/>
<path d="M43 11404 c-3 -8 4 -25 17 -40 l23 -24 -21 -23 c-41 -44 -18 -73 30
-37 l30 22 23 -22 c25 -23 55 -21 55 3 0 7 -11 24 -24 36 l-24 22 24 24 c13
13 24 29 24 35 0 22 -32 22 -56 0 l-24 -23 -23 21 c-27 26 -45 28 -54 6z"/>
<path d="M82 10910 c4 -107 16 -125 82 -125 72 0 86 20 86 127 0 87 0 88 -25
88 -25 0 -25 -1 -25 -85 0 -70 -3 -87 -16 -92 -36 -14 -49 10 -52 96 -3 80 -3
81 -28 81 l-26 0 4 -90z"/>
<path d="M60 10750 c0 -6 43 -10 110 -10 67 0 110 4 110 10 0 6 -43 10 -110
10 -67 0 -110 -4 -110 -10z"/>
<path d="M20 10460 l0 -100 30 0 c17 0 30 5 30 10 0 6 -9 10 -20 10 -18 0 -20
7 -20 80 l0 80 49 0 c43 0 53 -4 76 -31 14 -17 29 -29 32 -25 4 3 -9 22 -27
41 -31 32 -39 35 -92 35 l-58 0 0 -100z"/>
<path d="M100 10360 l0 -100 90 0 90 0 0 68 c0 64 -2 70 -33 100 -29 28 -39
32 -90 32 l-57 0 0 -100z m137 58 c19 -18 23 -32 23 -80 l0 -58 -70 0 -70 0 0
80 0 80 47 0 c34 0 53 -6 70 -22z"/>
<path d="M20 9980 l0 -100 30 0 c17 0 30 5 30 10 0 6 -9 10 -20 10 -18 0 -20
7 -20 80 l0 80 49 0 c43 0 53 -4 76 -31 14 -17 29 -29 32 -25 4 3 -9 22 -27
41 -31 32 -39 35 -92 35 l-58 0 0 -100z"/>
<path d="M100 9880 l0 -100 90 0 90 0 0 68 c0 64 -2 70 -33 100 -29 28 -39 32
-90 32 l-57 0 0 -100z m137 58 c19 -18 23 -32 23 -80 l0 -58 -70 0 -70 0 0 80
0 80 47 0 c34 0 53 -6 70 -22z"/>
<path d="M85 9567 c-9 -21 10 -70 42 -107 22 -27 22 -27 3 -45 -11 -10 -30
-23 -43 -29 -34 -18 -31 -68 7 -81 24 -8 31 -6 47 14 15 18 16 27 8 43 -6 11
-9 21 -7 22 2 1 11 7 20 14 27 21 58 -4 51 -40 -11 -53 50 -81 81 -36 18 26 7
51 -31 70 -45 22 -49 41 -20 80 30 39 45 92 29 102 -6 3 -17 -2 -24 -12 -7
-10 -25 -33 -40 -51 l-28 -33 -26 31 c-14 18 -34 42 -44 54 -17 20 -19 21 -25
4z m43 -220 c4 -20 -25 -34 -40 -19 -15 15 -1 44 19 40 10 -2 19 -11 21 -21z
m150 0 c4 -20 -25 -34 -40 -19 -15 15 -1 44 19 40 10 -2 19 -11 21 -21z"/>
<path d="M85 9087 c-9 -21 10 -70 42 -107 22 -27 22 -27 3 -45 -11 -10 -30
-23 -43 -29 -34 -18 -31 -68 7 -81 24 -8 31 -6 47 14 15 18 16 27 8 43 -6 11
-9 21 -7 22 2 1 11 7 20 14 27 21 58 -4 51 -40 -11 -53 50 -81 81 -36 18 26 7
51 -31 70 -45 22 -49 41 -20 80 30 39 45 92 29 102 -6 3 -17 -2 -24 -12 -7
-10 -25 -33 -40 -51 l-28 -33 -26 31 c-14 18 -34 42 -44 54 -17 20 -19 21 -25
4z m43 -220 c4 -20 -25 -34 -40 -19 -15 15 -1 44 19 40 10 -2 19 -11 21 -21z
m150 0 c4 -20 -25 -34 -40 -19 -15 15 -1 44 19 40 10 -2 19 -11 21 -21z"/>
<path d="M113 8625 c-29 -32 -16 -45 47 -45 48 0 60 3 60 16 0 40 -79 61 -107
29z"/>
<path d="M52 8608 c-16 -16 -16 -220 0 -236 14 -14 48 -16 48 -3 0 5 -9 11
-20 14 -18 5 -20 14 -20 105 0 57 4 104 10 107 12 7 13 25 2 25 -4 0 -13 -5
-20 -12z"/>
<path d="M240 8611 c0 -6 5 -13 10 -16 6 -3 10 -17 10 -31 0 -13 5 -24 10 -24
14 0 12 54 -2 68 -14 14 -28 16 -28 3z"/>
<path d="M124 8507 c-3 -8 -4 -47 -2 -88 l3 -74 85 0 85 0 0 85 0 85 -83 3
c-63 2 -84 0 -88 -11z m156 -77 l0 -70 -70 0 -70 0 0 70 0 70 70 0 70 0 0 -70z"/>
<path d="M160 8470 c0 -5 23 -10 50 -10 28 0 50 5 50 10 0 6 -22 10 -50 10
-27 0 -50 -4 -50 -10z"/>
<path d="M160 8430 c0 -5 23 -10 50 -10 28 0 50 5 50 10 0 6 -22 10 -50 10
-27 0 -50 -4 -50 -10z"/>
<path d="M160 8390 c0 -5 23 -10 50 -10 28 0 50 5 50 10 0 6 -22 10 -50 10
-27 0 -50 -4 -50 -10z"/>
<path d="M113 8145 c-29 -32 -16 -45 47 -45 48 0 60 3 60 16 0 40 -79 61 -107
29z"/>
<path d="M52 8128 c-16 -16 -16 -220 0 -236 14 -14 48 -16 48 -3 0 5 -9 11
-20 14 -18 5 -20 14 -20 105 0 57 4 104 10 107 12 7 13 25 2 25 -4 0 -13 -5
-20 -12z"/>
<path d="M240 8131 c0 -6 5 -13 10 -16 6 -3 10 -17 10 -31 0 -13 5 -24 10 -24
14 0 12 54 -2 68 -14 14 -28 16 -28 3z"/>
<path d="M124 8027 c-3 -8 -4 -47 -2 -88 l3 -74 85 0 85 0 0 85 0 85 -83 3
c-63 2 -84 0 -88 -11z m156 -77 l0 -70 -70 0 -70 0 0 70 0 70 70 0 70 0 0 -70z"/>
<path d="M160 7990 c0 -5 23 -10 50 -10 28 0 50 5 50 10 0 6 -22 10 -50 10
-27 0 -50 -4 -50 -10z"/>
<path d="M160 7950 c0 -5 23 -10 50 -10 28 0 50 5 50 10 0 6 -22 10 -50 10
-27 0 -50 -4 -50 -10z"/>
<path d="M160 7910 c0 -5 23 -10 50 -10 28 0 50 5 50 10 0 6 -22 10 -50 10
-27 0 -50 -4 -50 -10z"/>
<path d="M160 7510 c0 -80 4 -130 10 -130 6 0 10 50 10 130 0 80 -4 130 -10
130 -6 0 -10 -50 -10 -130z"/>
<path d="M20 7590 c0 -6 27 -10 60 -10 33 0 60 4 60 10 0 6 -27 10 -60 10 -33
0 -60 -4 -60 -10z"/>
<path d="M200 7590 c0 -5 5 -10 10 -10 6 0 10 5 10 10 0 6 -4 10 -10 10 -5 0
-10 -4 -10 -10z"/>
<path d="M240 7590 c0 -5 5 -10 10 -10 6 0 10 5 10 10 0 6 -4 10 -10 10 -5 0
-10 -4 -10 -10z"/>
<path d="M60 7550 c0 -5 18 -10 40 -10 22 0 40 5 40 10 0 6 -18 10 -40 10 -22
0 -40 -4 -40 -10z"/>
<path d="M220 7526 c-11 -15 -11 -19 3 -34 11 -10 17 -12 17 -4 0 7 13 12 30
12 17 0 30 5 30 10 0 6 -13 10 -29 10 -16 0 -31 5 -33 11 -2 7 -9 5 -18 -5z"/>
<path d="M20 7510 c0 -6 27 -10 60 -10 33 0 60 4 60 10 0 6 -27 10 -60 10 -33
0 -60 -4 -60 -10z"/>
<path d="M60 7470 c0 -5 18 -10 40 -10 22 0 40 5 40 10 0 6 -18 10 -40 10 -22
0 -40 -4 -40 -10z"/>
<path d="M20 7430 c0 -6 27 -10 60 -10 33 0 60 4 60 10 0 6 -27 10 -60 10 -33
0 -60 -4 -60 -10z"/>
<path d="M200 7430 c0 -5 5 -10 10 -10 6 0 10 5 10 10 0 6 -4 10 -10 10 -5 0
-10 -4 -10 -10z"/>
<path d="M240 7430 c0 -5 5 -10 10 -10 6 0 10 5 10 10 0 6 -4 10 -10 10 -5 0
-10 -4 -10 -10z"/>
<path d="M147 7153 c-11 -10 -8 -241 3 -248 6 -4 10 40 10 124 0 72 -1 131 -3
131 -2 0 -7 -3 -10 -7z"/>
<path d="M65 7110 c3 -5 8 -10 11 -10 2 0 4 5 4 10 0 6 -5 10 -11 10 -5 0 -7
-4 -4 -10z"/>
<path d="M105 7110 c-3 -5 -1 -10 4 -10 6 0 11 5 11 10 0 6 -2 10 -4 10 -3 0
-8 -4 -11 -10z"/>
<path d="M190 7110 c0 -5 25 -10 55 -10 30 0 55 5 55 10 0 6 -25 10 -55 10
-30 0 -55 -4 -55 -10z"/>
<path d="M190 7070 c0 -5 16 -10 35 -10 19 0 35 5 35 10 0 6 -16 10 -35 10
-19 0 -35 -4 -35 -10z"/>
<path d="M80 7050 c0 -5 -13 -10 -30 -10 -16 0 -30 -4 -30 -10 0 -5 14 -10 30
-10 17 0 30 -5 30 -10 0 -6 8 -5 20 2 11 7 20 15 20 18 0 3 -9 11 -20 18 -12
7 -20 8 -20 2z"/>
<path d="M190 7030 c0 -5 25 -10 55 -10 30 0 55 5 55 10 0 6 -25 10 -55 10
-30 0 -55 -4 -55 -10z"/>
<path d="M190 6990 c0 -5 16 -10 35 -10 19 0 35 5 35 10 0 6 -16 10 -35 10
-19 0 -35 -4 -35 -10z"/>
<path d="M60 6950 c0 -5 5 -10 10 -10 6 0 10 5 10 10 0 6 -4 10 -10 10 -5 0
-10 -4 -10 -10z"/>
<path d="M100 6950 c0 -5 5 -10 10 -10 6 0 10 5 10 10 0 6 -4 10 -10 10 -5 0
-10 -4 -10 -10z"/>
<path d="M190 6950 c0 -5 25 -10 55 -10 30 0 55 5 55 10 0 6 -25 10 -55 10
-30 0 -55 -4 -55 -10z"/>
<path d="M160 6550 c0 -80 4 -130 10 -130 6 0 10 50 10 130 0 80 -4 130 -10
130 -6 0 -10 -50 -10 -130z"/>
<path d="M20 6630 c0 -6 27 -10 60 -10 33 0 60 4 60 10 0 6 -27 10 -60 10 -33
0 -60 -4 -60 -10z"/>
<path d="M200 6630 c0 -5 5 -10 10 -10 6 0 10 5 10 10 0 6 -4 10 -10 10 -5 0
-10 -4 -10 -10z"/>
<path d="M240 6630 c0 -5 5 -10 10 -10 6 0 10 5 10 10 0 6 -4 10 -10 10 -5 0
-10 -4 -10 -10z"/>
<path d="M60 6590 c0 -5 18 -10 40 -10 22 0 40 5 40 10 0 6 -18 10 -40 10 -22
0 -40 -4 -40 -10z"/>
<path d="M260 6572 c0 -7 -13 -12 -30 -12 -16 0 -30 -4 -30 -10 0 -5 14 -10
30 -10 17 0 30 -5 30 -12 0 -8 6 -6 17 5 16 16 16 18 0 34 -11 11 -17 13 -17
5z"/>
<path d="M20 6550 c0 -6 27 -10 60 -10 33 0 60 4 60 10 0 6 -27 10 -60 10 -33
0 -60 -4 -60 -10z"/>
<path d="M60 6510 c0 -5 18 -10 40 -10 22 0 40 5 40 10 0 6 -18 10 -40 10 -22
0 -40 -4 -40 -10z"/>
<path d="M20 6470 c0 -6 27 -10 60 -10 33 0 60 4 60 10 0 6 -27 10 -60 10 -33
0 -60 -4 -60 -10z"/>
<path d="M200 6470 c0 -5 5 -10 10 -10 6 0 10 5 10 10 0 6 -4 10 -10 10 -5 0
-10 -4 -10 -10z"/>
<path d="M240 6470 c0 -5 5 -10 10 -10 6 0 10 5 10 10 0 6 -4 10 -10 10 -5 0
-10 -4 -10 -10z"/>
<path d="M140 6070 c0 -80 4 -130 10 -130 6 0 10 50 10 130 0 80 -4 130 -10
130 -6 0 -10 -50 -10 -130z"/>
<path d="M60 6150 c0 -5 5 -10 10 -10 6 0 10 5 10 10 0 6 -4 10 -10 10 -5 0
-10 -4 -10 -10z"/>
<path d="M100 6150 c0 -5 5 -10 10 -10 6 0 10 5 10 10 0 6 -4 10 -10 10 -5 0
-10 -4 -10 -10z"/>
<path d="M180 6150 c0 -6 27 -10 60 -10 33 0 60 4 60 10 0 6 -27 10 -60 10
-33 0 -60 -4 -60 -10z"/>
<path d="M180 6110 c0 -5 18 -10 40 -10 22 0 40 5 40 10 0 6 -18 10 -40 10
-22 0 -40 -4 -40 -10z"/>
<path d="M36 6084 c-20 -14 -20 -14 0 -28 10 -8 21 -10 22 -5 2 5 17 9 33 9
16 0 29 5 29 10 0 6 -13 10 -29 10 -16 0 -31 4 -33 9 -1 5 -12 3 -22 -5z"/>
<path d="M180 6070 c0 -6 27 -10 60 -10 33 0 60 4 60 10 0 6 -27 10 -60 10
-33 0 -60 -4 -60 -10z"/>
<path d="M180 6030 c0 -5 18 -10 40 -10 22 0 40 5 40 10 0 6 -18 10 -40 10
-22 0 -40 -4 -40 -10z"/>
<path d="M60 5990 c0 -5 5 -10 10 -10 6 0 10 5 10 10 0 6 -4 10 -10 10 -5 0
-10 -4 -10 -10z"/>
<path d="M100 5990 c0 -5 5 -10 10 -10 6 0 10 5 10 10 0 6 -4 10 -10 10 -5 0
-10 -4 -10 -10z"/>
<path d="M180 5990 c0 -6 27 -10 60 -10 33 0 60 4 60 10 0 6 -27 10 -60 10
-33 0 -60 -4 -60 -10z"/>
<path d="M160 5735 c-44 -17 -93 -18 -108 -3 -9 9 -12 -6 -12 -68 0 -49 5 -85
12 -92 17 -17 55 -15 110 5 43 15 48 15 72 -1 l26 -16 0 79 c0 71 -2 82 -22
95 -26 19 -32 19 -78 1z"/>
<path d="M280 5600 c0 -87 4 -140 10 -140 6 0 10 53 10 140 0 87 -4 140 -10
140 -6 0 -10 -53 -10 -140z"/>
<path d="M102 5254 c-20 -13 -22 -24 -22 -95 l0 -79 26 16 c24 16 29 16 72 1
55 -20 93 -22 110 -5 7 7 12 43 12 92 0 62 -3 77 -12 68 -16 -16 -57 -15 -108
3 -52 18 -51 18 -78 -1z"/>
<path d="M40 5120 c0 -87 4 -140 10 -140 6 0 10 53 10 140 0 87 -4 140 -10
140 -6 0 -10 -53 -10 -140z"/>
<path d="M40 4700 c-26 -26 -26 -74 0 -100 23 -23 88 -28 108 -8 9 9 15 9 24
0 20 -20 85 -15 108 8 26 26 26 74 0 100 -23 23 -88 28 -108 8 -9 -9 -15 -9
-24 0 -20 20 -85 15 -108 -8z m100 -9 c0 -6 -17 -11 -37 -13 -33 -3 -38 -6
-38 -28 0 -22 5 -25 38 -28 20 -2 37 -7 37 -13 0 -13 -74 -11 -88 3 -15 15
-15 61 0 76 14 14 88 16 88 3z m128 -3 c15 -15 15 -61 0 -76 -14 -14 -88 -16
-88 -3 0 6 17 11 38 13 32 3 37 6 37 28 0 22 -5 25 -37 28 -21 2 -38 7 -38 13
0 13 74 11 88 -3z m-28 -38 c0 -6 -33 -10 -80 -10 -47 0 -80 4 -80 10 0 6 33
10 80 10 47 0 80 -4 80 -10z"/>
<path d="M40 4220 c-26 -26 -26 -74 0 -100 21 -21 94 -28 105 -10 4 6 -11 10
-37 10 -50 0 -68 13 -68 50 0 36 17 50 62 50 49 0 50 -18 1 -22 -33 -3 -38 -6
-38 -28 0 -22 5 -26 43 -31 29 -4 46 -1 53 8 9 10 2 13 -35 13 -25 0 -46 5
-46 10 0 6 33 10 80 10 47 0 80 -4 80 -10 0 -5 -8 -10 -17 -10 -13 0 -14 -3
-6 -11 18 -18 45 -2 41 23 -2 19 -10 24 -40 26 -21 2 -38 8 -38 13 0 6 19 9
42 7 32 -2 45 -8 54 -26 17 -34 24 -38 24 -14 0 35 -35 62 -78 62 -21 0 -43
-5 -50 -12 -9 -9 -15 -9 -24 0 -20 20 -85 15 -108 -8z"/>
<path d="M177 4133 c-4 -3 3 -17 15 -30 21 -22 21 -23 3 -43 -13 -14 -15 -24
-8 -31 8 -8 15 -4 27 12 l16 23 24 -23 c28 -26 48 -11 22 18 -20 22 -20 37 -1
45 16 6 21 36 7 36 -5 0 -17 -9 -27 -20 l-18 -20 -22 20 c-23 22 -28 23 -38
13z"/>
<path d="M20 3770 c0 -6 30 -10 70 -10 40 0 70 4 70 10 0 6 -30 10 -70 10 -40
0 -70 -4 -70 -10z"/>
<path d="M210 3765 c-26 -32 13 -81 48 -59 34 22 22 74 -18 74 -10 0 -23 -7
-30 -15z"/>
<path d="M20 3730 c0 -6 30 -10 70 -10 40 0 70 4 70 10 0 6 -30 10 -70 10 -40
0 -70 -4 -70 -10z"/>
<path d="M20 3630 c0 -6 30 -10 70 -10 40 0 70 4 70 10 0 6 -30 10 -70 10 -40
0 -70 -4 -70 -10z"/>
<path d="M210 3625 c-26 -32 13 -81 48 -59 34 22 22 74 -18 74 -10 0 -23 -7
-30 -15z"/>
<path d="M20 3590 c0 -6 30 -10 70 -10 40 0 70 4 70 10 0 6 -30 10 -70 10 -40
0 -70 -4 -70 -10z"/>
<path d="M50 3285 c-26 -32 13 -81 48 -59 34 22 22 74 -18 74 -10 0 -23 -7
-30 -15z"/>
<path d="M160 3290 c0 -6 30 -10 70 -10 40 0 70 4 70 10 0 6 -30 10 -70 10
-40 0 -70 -4 -70 -10z"/>
<path d="M160 3250 c0 -6 30 -10 70 -10 40 0 70 4 70 10 0 6 -30 10 -70 10
-40 0 -70 -4 -70 -10z"/>
<path d="M50 3145 c-26 -32 13 -81 48 -59 34 22 22 74 -18 74 -10 0 -23 -7
-30 -15z"/>
<path d="M160 3150 c0 -6 30 -10 70 -10 40 0 70 4 70 10 0 6 -30 10 -70 10
-40 0 -70 -4 -70 -10z"/>
<path d="M160 3110 c0 -6 30 -10 70 -10 40 0 70 4 70 10 0 6 -30 10 -70 10
-40 0 -70 -4 -70 -10z"/>
<path d="M40 2810 c0 -6 30 -10 70 -10 40 0 70 4 70 10 0 6 -30 10 -70 10 -40
0 -70 -4 -70 -10z"/>
<path d="M248 2808 c7 -7 12 -29 12 -50 0 -21 5 -38 10 -38 6 0 10 23 10 50 0
45 -2 50 -22 50 -17 0 -19 -3 -10 -12z"/>
<path d="M40 2770 c0 -6 30 -10 70 -10 40 0 70 4 70 10 0 6 -30 10 -70 10 -40
0 -70 -4 -70 -10z"/>
<path d="M40 2670 c0 -6 30 -10 70 -10 40 0 70 4 70 10 0 6 -30 10 -70 10 -40
0 -70 -4 -70 -10z"/>
<path d="M220 2670 c0 -5 9 -10 20 -10 11 0 20 -4 20 -10 0 -5 -9 -10 -20 -10
-16 0 -20 -7 -20 -30 0 -27 3 -30 30 -30 17 0 30 5 30 10 0 6 -9 10 -20 10
-11 0 -20 5 -20 10 0 6 9 10 20 10 16 0 20 7 20 30 0 27 -3 30 -30 30 -16 0
-30 -4 -30 -10z"/>
<path d="M40 2630 c0 -6 30 -10 70 -10 40 0 70 4 70 10 0 6 -30 10 -70 10 -40
0 -70 -4 -70 -10z"/>
<path d="M60 2330 c0 -5 5 -10 10 -10 6 0 10 -18 10 -40 0 -22 5 -40 10 -40 6
0 10 23 10 50 0 43 -3 50 -20 50 -11 0 -20 -4 -20 -10z"/>
<path d="M140 2330 c0 -6 30 -10 70 -10 40 0 70 4 70 10 0 6 -30 10 -70 10
-40 0 -70 -4 -70 -10z"/>
<path d="M140 2290 c0 -6 30 -10 70 -10 40 0 70 4 70 10 0 6 -30 10 -70 10
-40 0 -70 -4 -70 -10z"/>
<path d="M40 2190 c0 -5 9 -10 20 -10 11 0 20 -4 20 -10 0 -5 -9 -10 -20 -10
-16 0 -20 -7 -20 -30 0 -27 3 -30 30 -30 17 0 30 5 30 10 0 6 -9 10 -20 10
-11 0 -20 5 -20 10 0 6 9 10 20 10 16 0 20 7 20 30 0 27 -3 30 -30 30 -16 0
-30 -4 -30 -10z"/>
<path d="M140 2190 c0 -6 30 -10 70 -10 40 0 70 4 70 10 0 6 -30 10 -70 10
-40 0 -70 -4 -70 -10z"/>
<path d="M140 2150 c0 -6 30 -10 70 -10 40 0 70 4 70 10 0 6 -30 10 -70 10
-40 0 -70 -4 -70 -10z"/>
<path d="M95 1813 c-33 -24 -60 -48 -60 -53 0 -5 28 -30 63 -55 l62 -45 0 36
c0 33 2 36 23 30 12 -3 27 -6 33 -6 6 0 28 -11 49 -26 l37 -25 -6 28 c-11 42
-55 83 -98 89 -33 6 -37 10 -40 39 l-3 32 -60 -44z"/>
<path d="M160 1346 c0 -31 -3 -34 -38 -40 -43 -6 -87 -47 -98 -89 l-6 -28 37
25 c21 15 43 26 49 26 6 0 21 3 34 6 20 6 22 3 22 -30 l0 -36 65 47 c36 26 65
49 65 53 0 4 -29 27 -65 53 l-65 47 0 -34z"/>
<path d="M160 866 c0 -31 -3 -34 -38 -40 -43 -6 -87 -47 -98 -89 l-6 -28 37
25 c21 15 43 26 49 26 6 0 21 3 34 6 20 6 22 3 22 -30 l0 -36 65 47 c36 26 65
49 65 53 0 4 -29 27 -65 53 l-65 47 0 -34z"/>
<path d="M95 373 c-33 -24 -60 -48 -60 -53 0 -5 28 -30 63 -55 l62 -45 0 36
c0 33 2 36 23 30 12 -3 27 -6 33 -6 6 0 28 -11 49 -26 l37 -25 -6 28 c-11 42
-55 83 -98 89 -33 6 -37 10 -40 39 l-3 32 -60 -44z"/>
</g>
</svg>
