<?xml version="1.0" standalone="no"?>
<!DOCTYPE svg PUBLIC "-//W3C//DTD SVG 20010904//EN"
 "http://www.w3.org/TR/2001/REC-SVG-20010904/DTD/svg10.dtd">
<svg version="1.0" xmlns="http://www.w3.org/2000/svg"
 width="16.000000pt" height="696.000000pt" viewBox="0 0 16.000000 696.000000"
 preserveAspectRatio="xMidYMid meet">

<g transform="translate(0.000000,696.000000) scale(0.100000,-0.100000)"
fill="#000000" stroke="none">
<path d="M58 6939 c-10 -5 -18 -17 -18 -24 0 -20 10 -19 25 2 14 19 45 11 45
-11 0 -9 -9 -20 -20 -26 -20 -11 -28 -30 -12 -30 14 0 52 40 52 55 0 17 -27
45 -43 45 -7 0 -20 -5 -29 -11z"/>
<path d="M70 6826 c0 -9 7 -16 16 -16 17 0 14 22 -4 28 -7 2 -12 -3 -12 -12z"/>
<path d="M40 6640 l0 -60 34 0 c39 0 62 21 51 47 -5 10 -7 26 -6 37 3 23 -15
36 -51 36 -27 0 -28 -1 -28 -60z m60 25 c0 -8 -7 -15 -15 -15 -8 0 -15 7 -15
15 0 8 7 15 15 15 8 0 15 -7 15 -15z m8 -47 c-7 -19 -38 -22 -38 -4 0 10 9 16
21 16 12 0 19 -5 17 -12z"/>
<path d="M64 6418 c-1 -26 -8 -46 -18 -53 -24 -18 -20 -25 14 -25 17 0 30 5
30 10 0 6 -4 10 -9 10 -5 0 -4 17 1 40 6 22 14 40 19 40 5 0 9 5 9 10 0 6 -10
10 -23 10 -19 0 -22 -5 -23 -42z"/>
<path d="M50 6205 c-7 -8 -10 -21 -7 -29 4 -9 -1 -17 -11 -19 -9 -3 2 -5 26
-6 32 -1 42 -5 42 -17 0 -13 -7 -15 -30 -10 -36 7 -41 -11 -5 -20 33 -8 56 1
62 26 3 11 10 20 17 21 6 1 -8 6 -32 12 -45 12 -54 32 -14 32 12 -1 22 5 22
12 0 18 -55 17 -70 -2z"/>
<path d="M20 5952 c0 -4 5 -13 12 -20 8 -8 8 -15 -2 -27 -17 -20 -5 -32 15
-15 12 10 18 10 30 0 20 -17 32 -5 15 15 -10 12 -10 18 0 30 17 20 5 32 -15
15 -12 -10 -19 -10 -27 -2 -14 14 -28 16 -28 4z"/>
<path d="M125 5890 c17 -7 17 -9 3 -9 -10 -1 -18 -8 -18 -16 0 -9 9 -15 23
-14 21 0 21 1 2 9 -17 7 -17 9 -2 9 9 1 17 8 17 16 0 9 -9 15 -22 14 -22 0
-22 -1 -3 -9z"/>
<path d="M125 5730 c17 -7 17 -9 3 -9 -10 -1 -18 -8 -18 -16 0 -9 9 -15 23
-14 21 0 21 1 2 9 -17 7 -17 9 -2 9 9 1 17 8 17 16 0 9 -9 15 -22 14 -22 0
-22 -1 -3 -9z"/>
<path d="M20 5702 c0 -4 5 -13 12 -20 8 -8 8 -15 -2 -27 -17 -20 -5 -32 15
-15 12 10 18 10 30 0 20 -17 32 -5 15 15 -10 12 -10 18 0 30 17 20 5 32 -15
15 -12 -10 -19 -10 -27 -2 -14 14 -28 16 -28 4z"/>
<path d="M40 5456 c0 -50 18 -71 54 -62 24 6 36 30 36 79 0 17 -5 27 -15 27
-11 0 -15 -12 -15 -46 0 -38 -3 -45 -17 -42 -14 3 -18 13 -18 46 0 27 -4 42
-12 42 -9 0 -13 -15 -13 -44z"/>
<path d="M58 5373 c18 -2 45 -2 60 0 15 2 0 4 -33 4 -33 0 -45 -2 -27 -4z"/>
<path d="M10 5230 c0 -41 3 -50 18 -49 10 0 12 3 5 6 -8 2 -13 22 -13 44 0 33
3 39 22 39 12 0 31 -8 42 -17 21 -18 21 -18 2 5 -12 13 -30 22 -48 22 -27 0
-28 -2 -28 -50z"/>
<path d="M50 5180 l0 -50 45 0 c44 0 45 0 45 33 0 40 -25 67 -63 67 -26 0 -27
-2 -27 -50z m68 28 c7 -7 12 -25 12 -40 0 -25 -3 -28 -35 -28 -34 0 -35 1 -35
40 0 35 3 40 23 40 13 0 28 -5 35 -12z"/>
<path d="M10 4990 c0 -41 3 -50 18 -49 10 0 12 3 5 6 -8 2 -13 22 -13 44 0 33
3 39 22 39 12 0 31 -8 42 -17 21 -18 21 -18 2 5 -12 13 -30 22 -48 22 -27 0
-28 -2 -28 -50z"/>
<path d="M50 4940 l0 -50 45 0 c44 0 45 0 45 33 0 40 -25 67 -63 67 -26 0 -27
-2 -27 -50z m68 28 c7 -7 12 -25 12 -40 0 -25 -3 -28 -35 -28 -34 0 -35 1 -35
40 0 35 3 40 23 40 13 0 28 -5 35 -12z"/>
<path d="M40 4780 c0 -9 7 -26 17 -39 16 -23 15 -25 -6 -43 -14 -11 -21 -24
-17 -34 8 -22 41 -13 41 11 0 21 29 28 31 8 1 -7 2 -17 3 -23 2 -16 31 -12 37
5 4 9 -3 23 -17 33 -21 18 -22 20 -6 43 27 38 20 59 -8 26 l-25 -28 -25 28
c-16 19 -24 23 -25 13z m25 -110 c-3 -5 -10 -10 -16 -10 -5 0 -9 5 -9 10 0 6
7 10 16 10 8 0 12 -4 9 -10z m75 0 c0 -5 -4 -10 -10 -10 -5 0 -10 5 -10 10 0
6 5 10 10 10 6 0 10 -4 10 -10z"/>
<path d="M40 4540 c0 -9 7 -26 17 -39 16 -23 15 -25 -6 -43 -14 -11 -21 -24
-17 -34 8 -22 41 -13 41 11 0 21 29 28 31 8 1 -7 2 -17 3 -23 2 -16 31 -12 37
5 4 9 -3 23 -17 33 -21 18 -22 20 -6 43 27 38 20 59 -8 26 l-25 -28 -25 28
c-16 19 -24 23 -25 13z m25 -110 c-3 -5 -10 -10 -16 -10 -5 0 -9 5 -9 10 0 6
7 10 16 10 8 0 12 -4 9 -10z m75 0 c0 -5 -4 -10 -10 -10 -5 0 -10 5 -10 10 0
6 5 10 10 10 6 0 10 -4 10 -10z"/>
<path d="M57 4314 c-15 -15 -6 -24 24 -24 20 0 29 4 27 13 -5 14 -40 21 -51
11z"/>
<path d="M24 4296 c-11 -28 1 -109 16 -113 12 -4 12 -3 1 5 -9 7 -12 27 -10
66 4 57 2 67 -7 42z"/>
<path d="M127 4289 c4 -13 8 -18 11 -10 2 7 -1 18 -6 23 -8 8 -9 4 -5 -13z"/>
<path d="M60 4215 l0 -45 45 0 45 0 0 45 0 45 -45 0 -45 0 0 -45z m80 0 c0
-33 -2 -35 -35 -35 -33 0 -35 2 -35 35 0 33 2 35 35 35 33 0 35 -2 35 -35z"/>
<path d="M93 4233 c9 -2 23 -2 30 0 6 3 -1 5 -18 5 -16 0 -22 -2 -12 -5z"/>
<path d="M93 4213 c9 -2 23 -2 30 0 6 3 -1 5 -18 5 -16 0 -22 -2 -12 -5z"/>
<path d="M93 4193 c9 -2 23 -2 30 0 6 3 -1 5 -18 5 -16 0 -22 -2 -12 -5z"/>
<path d="M57 4074 c-15 -15 -6 -24 24 -24 20 0 29 4 27 13 -5 14 -40 21 -51
11z"/>
<path d="M24 4056 c-11 -28 1 -109 16 -113 12 -4 12 -3 1 5 -9 7 -12 27 -10
66 4 57 2 67 -7 42z"/>
<path d="M127 4049 c4 -13 8 -18 11 -10 2 7 -1 18 -6 23 -8 8 -9 4 -5 -13z"/>
<path d="M60 3975 l0 -45 45 0 45 0 0 45 0 45 -45 0 -45 0 0 -45z m80 0 c0
-33 -2 -35 -35 -35 -33 0 -35 2 -35 35 0 33 2 35 35 35 33 0 35 -2 35 -35z"/>
<path d="M93 3993 c9 -2 23 -2 30 0 6 3 -1 5 -18 5 -16 0 -22 -2 -12 -5z"/>
<path d="M93 3973 c9 -2 23 -2 30 0 6 3 -1 5 -18 5 -16 0 -22 -2 -12 -5z"/>
<path d="M93 3953 c9 -2 23 -2 30 0 6 3 -1 5 -18 5 -16 0 -22 -2 -12 -5z"/>
<path d="M83 3755 c0 -38 2 -53 4 -32 2 20 2 52 0 70 -2 17 -4 1 -4 -38z"/>
<path d="M23 3793 c9 -2 25 -2 35 0 9 3 1 5 -18 5 -19 0 -27 -2 -17 -5z"/>
<path d="M38 3773 c6 -2 18 -2 25 0 6 3 1 5 -13 5 -14 0 -19 -2 -12 -5z"/>
<path d="M105 3760 c-8 -13 8 -18 29 -10 19 6 19 7 -2 12 -12 4 -24 2 -27 -2z"/>
<path d="M23 3753 c9 -2 25 -2 35 0 9 3 1 5 -18 5 -19 0 -27 -2 -17 -5z"/>
<path d="M38 3733 c6 -2 18 -2 25 0 6 3 1 5 -13 5 -14 0 -19 -2 -12 -5z"/>
<path d="M23 3713 c9 -2 25 -2 35 0 9 3 1 5 -18 5 -19 0 -27 -2 -17 -5z"/>
<path d="M73 3515 c0 -38 2 -53 4 -32 2 20 2 52 0 70 -2 17 -4 1 -4 -38z"/>
<path d="M103 3553 c9 -2 25 -2 35 0 9 3 1 5 -18 5 -19 0 -27 -2 -17 -5z"/>
<path d="M98 3533 c6 -2 18 -2 25 0 6 3 1 5 -13 5 -14 0 -19 -2 -12 -5z"/>
<path d="M26 3520 c-19 -6 -19 -7 2 -12 12 -4 24 -2 27 2 8 13 -8 18 -29 10z"/>
<path d="M103 3513 c9 -2 25 -2 35 0 9 3 1 5 -18 5 -19 0 -27 -2 -17 -5z"/>
<path d="M98 3493 c6 -2 18 -2 25 0 6 3 1 5 -13 5 -14 0 -19 -2 -12 -5z"/>
<path d="M103 3473 c9 -2 25 -2 35 0 9 3 1 5 -18 5 -19 0 -27 -2 -17 -5z"/>
<path d="M83 3275 c0 -38 2 -53 4 -32 2 20 2 52 0 70 -2 17 -4 1 -4 -38z"/>
<path d="M23 3313 c9 -2 25 -2 35 0 9 3 1 5 -18 5 -19 0 -27 -2 -17 -5z"/>
<path d="M38 3293 c6 -2 18 -2 25 0 6 3 1 5 -13 5 -14 0 -19 -2 -12 -5z"/>
<path d="M116 3280 c-19 -6 -19 -7 2 -12 12 -4 24 -2 27 2 8 13 -8 18 -29 10z"/>
<path d="M23 3273 c9 -2 25 -2 35 0 9 3 1 5 -18 5 -19 0 -27 -2 -17 -5z"/>
<path d="M38 3253 c6 -2 18 -2 25 0 6 3 1 5 -13 5 -14 0 -19 -2 -12 -5z"/>
<path d="M23 3233 c9 -2 25 -2 35 0 9 3 1 5 -18 5 -19 0 -27 -2 -17 -5z"/>
<path d="M73 3035 c0 -38 2 -53 4 -32 2 20 2 52 0 70 -2 17 -4 1 -4 -38z"/>
<path d="M103 3073 c9 -2 25 -2 35 0 9 3 1 5 -18 5 -19 0 -27 -2 -17 -5z"/>
<path d="M98 3053 c6 -2 18 -2 25 0 6 3 1 5 -13 5 -14 0 -19 -2 -12 -5z"/>
<path d="M15 3040 c-8 -13 8 -18 29 -10 19 6 19 7 -2 12 -12 4 -24 2 -27 -2z"/>
<path d="M103 3033 c9 -2 25 -2 35 0 9 3 1 5 -18 5 -19 0 -27 -2 -17 -5z"/>
<path d="M98 3013 c6 -2 18 -2 25 0 6 3 1 5 -13 5 -14 0 -19 -2 -12 -5z"/>
<path d="M103 2993 c9 -2 25 -2 35 0 9 3 1 5 -18 5 -19 0 -27 -2 -17 -5z"/>
<path d="M22 2825 l3 -40 53 0 53 0 -3 40 -3 40 -53 0 -53 0 3 -40z"/>
<path d="M143 2800 c0 -41 2 -58 4 -37 2 20 2 54 0 75 -2 20 -4 3 -4 -38z"/>
<path d="M23 2560 c0 -41 2 -58 4 -37 2 20 2 54 0 75 -2 20 -4 3 -4 -38z"/>
<path d="M46 2623 c-3 -3 -6 -22 -6 -42 l0 -36 53 0 52 0 3 40 3 40 -49 2
c-27 2 -52 0 -56 -4z"/>
<path d="M19 2343 c-23 -27 2 -48 59 -50 58 -2 84 16 65 45 -14 23 -107 27
-124 5z m34 0 c-13 -2 -23 -11 -23 -19 0 -8 10 -15 23 -15 18 -1 19 -2 3 -6
-10 -3 -23 0 -28 5 -17 17 -1 42 24 41 l23 -2 -22 -4z m82 -18 c0 -14 -7 -20
-23 -21 -18 -1 -19 -1 -2 3 27 6 25 30 -2 36 -20 5 -20 5 2 4 18 -2 25 -8 25
-22z m-32 -2 c-13 -2 -33 -2 -45 0 -13 2 -3 4 22 4 25 0 35 -2 23 -4z"/>
<path d="M18 2103 c-16 -20 2 -47 33 -50 l24 -2 -25 8 c-25 9 -25 9 5 11 30 2
30 2 5 10 -21 7 -18 8 18 9 31 1 41 -2 37 -11 -4 -7 1 -4 9 6 11 13 16 15 16
6 0 -7 3 -10 6 -7 4 4 2 13 -5 21 -16 19 -107 18 -123 -1z m35 0 c-13 -2 -23
-12 -23 -20 0 -9 -3 -14 -6 -10 -13 13 6 37 28 36 l23 -2 -22 -4z m70 0 c-7
-2 -19 -2 -25 0 -7 3 -2 5 12 5 14 0 19 -2 13 -5z"/>
<path d="M93 2040 c0 -21 4 -27 10 -21 7 7 15 7 26 -2 12 -10 14 -9 8 7 -4 10
-2 25 4 32 8 9 8 14 1 14 -6 0 -14 -5 -17 -10 -5 -8 -11 -8 -19 -1 -10 8 -13
3 -13 -19z"/>
<path d="M28 1883 c12 -2 30 -2 40 0 9 3 -1 5 -23 4 -22 0 -30 -2 -17 -4z"/>
<path d="M104 1879 c-10 -17 13 -36 27 -22 12 12 4 33 -11 33 -5 0 -12 -5 -16
-11z"/>
<path d="M28 1863 c12 -2 30 -2 40 0 9 3 -1 5 -23 4 -22 0 -30 -2 -17 -4z"/>
<path d="M28 1813 c12 -2 30 -2 40 0 9 3 -1 5 -23 4 -22 0 -30 -2 -17 -4z"/>
<path d="M104 1809 c-10 -17 13 -36 27 -22 12 12 4 33 -11 33 -5 0 -12 -5 -16
-11z"/>
<path d="M28 1793 c12 -2 30 -2 40 0 9 3 -1 5 -23 4 -22 0 -30 -2 -17 -4z"/>
<path d="M24 1639 c-10 -17 13 -36 27 -22 12 12 4 33 -11 33 -5 0 -12 -5 -16
-11z"/>
<path d="M98 1643 c12 -2 30 -2 40 0 9 3 -1 5 -23 4 -22 0 -30 -2 -17 -4z"/>
<path d="M98 1623 c12 -2 30 -2 40 0 9 3 -1 5 -23 4 -22 0 -30 -2 -17 -4z"/>
<path d="M24 1569 c-10 -17 13 -36 27 -22 12 12 4 33 -11 33 -5 0 -12 -5 -16
-11z"/>
<path d="M98 1573 c12 -2 30 -2 40 0 9 3 -1 5 -23 4 -22 0 -30 -2 -17 -4z"/>
<path d="M98 1553 c12 -2 30 -2 40 0 9 3 -1 5 -23 4 -22 0 -30 -2 -17 -4z"/>
<path d="M38 1403 c12 -2 30 -2 40 0 9 3 -1 5 -23 4 -22 0 -30 -2 -17 -4z"/>
<path d="M128 1385 c2 -14 6 -25 8 -25 2 0 4 11 4 25 0 14 -4 25 -9 25 -4 0
-6 -11 -3 -25z"/>
<path d="M38 1383 c12 -2 30 -2 40 0 9 3 -1 5 -23 4 -22 0 -30 -2 -17 -4z"/>
<path d="M38 1333 c12 -2 30 -2 40 0 9 3 -1 5 -23 4 -22 0 -30 -2 -17 -4z"/>
<path d="M120 1330 c10 -6 11 -10 3 -10 -7 0 -13 -7 -13 -15 0 -8 8 -15 18
-15 14 0 15 2 2 10 -10 6 -11 10 -2 10 6 0 12 7 12 15 0 8 -8 15 -17 15 -15 0
-16 -2 -3 -10z"/>
<path d="M38 1313 c12 -2 30 -2 40 0 9 3 -1 5 -23 4 -22 0 -30 -2 -17 -4z"/>
<path d="M38 1145 c2 -14 6 -25 8 -25 2 0 4 11 4 25 0 14 -4 25 -9 25 -4 0 -6
-11 -3 -25z"/>
<path d="M88 1163 c12 -2 30 -2 40 0 9 3 -1 5 -23 4 -22 0 -30 -2 -17 -4z"/>
<path d="M88 1143 c12 -2 30 -2 40 0 9 3 -1 5 -23 4 -22 0 -30 -2 -17 -4z"/>
<path d="M30 1090 c10 -6 11 -10 3 -10 -7 0 -13 -7 -13 -15 0 -8 8 -15 18 -15
14 0 15 2 2 10 -10 6 -11 10 -2 10 6 0 12 7 12 15 0 8 -8 15 -17 15 -15 0 -16
-2 -3 -10z"/>
<path d="M88 1093 c12 -2 30 -2 40 0 9 3 -1 5 -23 4 -22 0 -30 -2 -17 -4z"/>
<path d="M88 1073 c12 -2 30 -2 40 0 9 3 -1 5 -23 4 -22 0 -30 -2 -17 -4z"/>
<path d="M45 904 l-30 -24 30 -24 c23 -19 31 -21 33 -10 4 17 26 18 53 4 10
-6 19 -7 19 -2 0 14 -35 42 -53 42 -8 0 -17 9 -19 19 -3 18 -5 18 -33 -5z"/>
<path d="M80 670 c0 -13 -7 -20 -18 -20 -18 0 -52 -29 -52 -44 0 -4 9 -2 19 4
28 15 51 12 51 -5 0 -13 6 -11 30 7 17 12 30 25 30 28 0 3 -13 16 -30 28 -30
22 -30 22 -30 2z"/>
<path d="M80 430 c0 -13 -7 -20 -18 -20 -18 0 -52 -29 -52 -44 0 -4 9 -2 19 4
28 15 51 12 51 -5 0 -13 6 -11 30 7 17 12 30 25 30 28 0 3 -13 16 -30 28 -30
22 -30 22 -30 2z"/>
<path d="M45 184 l-30 -24 30 -24 c23 -19 31 -21 33 -10 4 17 26 18 53 4 10
-6 19 -7 19 -2 0 14 -35 42 -53 42 -8 0 -17 9 -19 19 -3 18 -5 18 -33 -5z"/>
</g>
</svg>
